<?xml version="1.0" standalone="no"?>
<!DOCTYPE svg PUBLIC "-//W3C//DTD SVG 20010904//EN"
 "http://www.w3.org/TR/2001/REC-SVG-20010904/DTD/svg10.dtd">
<svg version="1.0" xmlns="http://www.w3.org/2000/svg"
 width="700.000000pt" height="700.000000pt" viewBox="0 0 700.000000 700.000000"
 preserveAspectRatio="xMidYMid meet">
<metadata>
Created by potrace 1.14, written by Peter Selinger 2001-2017
</metadata>
<g transform="translate(0.000000,700.000000) scale(0.100000,-0.100000)"
fill="#000000" stroke="none">
<path d="M5670 4559 c-681 -74 -1245 -362 -1462 -746 -17 -30 -34 -51 -38 -46
-3 4 -27 37 -52 73 -25 36 -88 106 -140 155 -266 254 -665 424 -1188 507 -130
20 -180 23 -475 22 -293 0 -346 -2 -475 -22 -299 -47 -541 -119 -769 -228
-232 -111 -422 -255 -537 -407 -52 -69 -126 -217 -142 -287 -61 -257 27 -503
262 -727 283 -271 724 -450 1277 -520 204 -25 605 -23 814 6 643 87 1174 354
1393 698 15 24 29 43 32 43 3 0 25 -35 50 -78 62 -105 234 -278 360 -361 534
-351 1335 -471 2035 -303 106 25 109 26 70 33 -22 4 -78 8 -125 8 -47 1 -146
8 -220 16 -521 60 -979 241 -1239 490 -129 124 -212 252 -245 382 -20 78 -20
218 0 296 63 246 299 481 645 646 298 141 626 218 1039 242 107 6 196 12 198
14 7 7 -221 55 -353 76 -159 24 -566 35 -715 18z"/>
</g>
</svg>
