<svg id="svg" version="1.1" xmlns="http://www.w3.org/2000/svg" xmlns:xlink="http://www.w3.org/1999/xlink" width="400" height="400" viewBox="0, 0, 400,400"><g id="svgg"><path id="path0" d="M333.550 138.795 C 289.938 140.751,252.833 158.456,239.473 183.685 L 238.555 185.418 237.984 184.448 C 224.829 162.096,191.875 145.773,151.792 141.753 C 141.508 140.722,127.137 140.472,119.423 141.189 C 118.901 141.238,116.966 141.405,115.123 141.561 C 73.136 145.109,37.469 163.067,25.618 186.626 C 6.560 224.515,51.336 263.077,119.591 267.558 C 172.361 271.022,220.839 253.210,238.178 223.987 C 238.360 223.680,238.456 223.781,238.994 224.849 C 257.915 262.383,328.123 281.528,385.109 264.693 L 386.319 264.336 383.434 264.320 C 342.381 264.098,305.995 251.688,288.016 231.777 C 252.187 192.098,303.305 145.667,383.155 145.361 C 387.427 145.344,387.438 145.375,382.690 144.073 C 367.962 140.033,349.693 138.071,333.550 138.795 " stroke="none" fill="#fb6404" fill-rule="evenodd"></path><path id="path1" d="M0.000 200.000 L 0.000 400.000 200.000 400.000 L 400.000 400.000 400.000 200.000 L 400.000 0.000 200.000 0.000 L 0.000 0.000 0.000 200.000 M350.582 138.775 C 365.295 139.912,380.114 142.560,387.436 145.360 C 387.641 145.438,384.374 145.551,380.177 145.611 C 321.482 146.448,275.265 173.472,276.656 206.142 C 278.006 237.866,323.015 263.120,379.898 264.071 L 387.064 264.190 385.389 264.725 C 377.362 267.284,363.992 269.677,353.374 270.456 C 303.276 274.127,256.343 255.935,239.665 226.379 C 239.187 225.532,238.714 224.623,238.613 224.359 C 238.439 223.901,238.366 223.980,237.054 226.031 C 220.797 251.459,179.475 268.064,132.434 268.072 C 65.592 268.084,13.861 234.712,21.877 196.750 C 29.299 161.594,85.378 136.644,146.766 141.185 C 188.228 144.252,223.856 160.802,237.412 183.292 L 238.527 185.143 239.619 183.175 C 253.489 158.186,290.132 140.638,332.546 138.673 C 336.023 138.512,348.061 138.580,350.582 138.775 " stroke="none" fill="#bbe4e4" fill-rule="evenodd"></path><path id="path2" d="M336.485 138.618 C 336.820 138.659,337.323 138.658,337.602 138.616 C 337.882 138.574,337.608 138.540,336.994 138.541 C 336.380 138.542,336.151 138.576,336.485 138.618 M343.372 138.618 C 343.707 138.659,344.209 138.658,344.489 138.616 C 344.769 138.574,344.495 138.540,343.881 138.541 C 343.267 138.542,343.038 138.576,343.372 138.618 M349.046 138.797 C 349.225 138.844,349.518 138.844,349.698 138.797 C 349.877 138.751,349.730 138.712,349.372 138.712 C 349.013 138.712,348.867 138.751,349.046 138.797 M131.736 140.665 C 132.068 140.706,132.613 140.706,132.946 140.665 C 133.278 140.624,133.006 140.590,132.341 140.590 C 131.675 140.590,131.403 140.624,131.736 140.665 M124.570 140.845 C 124.749 140.892,125.042 140.892,125.221 140.845 C 125.400 140.798,125.254 140.760,124.895 140.760 C 124.537 140.760,124.390 140.798,124.570 140.845 M139.460 140.845 C 139.639 140.892,139.933 140.892,140.112 140.845 C 140.291 140.798,140.144 140.760,139.786 140.760 C 139.428 140.760,139.281 140.798,139.460 140.845 M381.340 145.509 C 382.287 145.542,383.837 145.542,384.784 145.509 C 385.731 145.475,384.956 145.447,383.062 145.447 C 381.168 145.447,380.393 145.475,381.340 145.509 M368.404 146.057 C 368.583 146.103,368.876 146.103,369.055 146.057 C 369.235 146.010,369.088 145.972,368.730 145.972 C 368.371 145.972,368.225 146.010,368.404 146.057 M251.361 168.311 L 250.814 168.916 251.419 168.369 C 251.983 167.859,252.110 167.706,251.966 167.706 C 251.934 167.706,251.662 167.978,251.361 168.311 M228.851 172.732 C 229.665 173.550,230.373 174.221,230.424 174.221 C 230.475 174.221,229.851 173.550,229.037 172.732 C 228.223 171.913,227.515 171.242,227.463 171.242 C 227.412 171.242,228.036 171.913,228.851 172.732 M21.080 203.164 C 21.082 203.574,21.120 203.719,21.165 203.488 C 21.209 203.256,21.208 202.921,21.161 202.743 C 21.114 202.565,21.078 202.755,21.080 203.164 M21.080 205.584 C 21.082 205.993,21.120 206.139,21.165 205.908 C 21.209 205.676,21.208 205.341,21.161 205.163 C 21.114 204.985,21.078 205.174,21.080 205.584 M35.644 236.017 C 36.252 236.631,36.792 237.134,36.843 237.134 C 36.894 237.134,36.438 236.631,35.831 236.017 C 35.223 235.403,34.684 234.900,34.632 234.900 C 34.581 234.900,35.037 235.403,35.644 236.017 M249.791 239.646 C 250.347 240.209,250.843 240.670,250.895 240.670 C 250.946 240.670,250.533 240.209,249.977 239.646 C 249.421 239.083,248.924 238.623,248.873 238.623 C 248.821 238.623,249.235 239.083,249.791 239.646 M375.105 264.065 C 375.284 264.112,375.577 264.112,375.756 264.065 C 375.935 264.018,375.789 263.980,375.430 263.980 C 375.072 263.980,374.926 264.018,375.105 264.065 M382.085 264.260 C 382.622 264.298,383.502 264.298,384.039 264.260 C 384.577 264.222,384.137 264.192,383.062 264.192 C 381.987 264.192,381.547 264.222,382.085 264.260 M120.289 267.788 C 120.468 267.835,120.761 267.835,120.940 267.788 C 121.119 267.741,120.973 267.703,120.614 267.703 C 120.256 267.703,120.109 267.741,120.289 267.788 M143.837 267.791 C 144.068 267.836,144.403 267.834,144.581 267.787 C 144.759 267.741,144.570 267.704,144.160 267.706 C 143.751 267.708,143.605 267.746,143.837 267.791 M139.646 267.974 C 139.826 268.021,140.119 268.021,140.298 267.974 C 140.477 267.927,140.330 267.889,139.972 267.889 C 139.614 267.889,139.467 267.927,139.646 267.974 M131.363 268.169 C 131.901 268.206,132.780 268.206,133.318 268.169 C 133.855 268.131,133.416 268.101,132.341 268.101 C 131.266 268.101,130.826 268.131,131.363 268.169 M328.944 270.580 C 329.123 270.626,329.416 270.626,329.595 270.580 C 329.774 270.533,329.628 270.495,329.269 270.495 C 328.911 270.495,328.765 270.533,328.944 270.580 M339.739 270.959 C 340.123 270.999,340.752 270.999,341.135 270.959 C 341.519 270.919,341.205 270.886,340.437 270.886 C 339.670 270.886,339.356 270.919,339.739 270.959 " stroke="none" fill="#d0b592" fill-rule="evenodd"></path><path id="path3" d="M339.181 138.621 C 339.872 138.657,341.003 138.657,341.694 138.621 C 342.385 138.585,341.819 138.556,340.437 138.556 C 339.055 138.556,338.490 138.585,339.181 138.621 M125.686 140.845 C 125.866 140.892,126.159 140.892,126.338 140.845 C 126.517 140.798,126.370 140.760,126.012 140.760 C 125.654 140.760,125.507 140.798,125.686 140.845 M138.343 140.845 C 138.523 140.892,138.816 140.892,138.995 140.845 C 139.174 140.798,139.027 140.760,138.669 140.760 C 138.311 140.760,138.164 140.798,138.343 140.845 M249.692 169.986 L 248.581 171.149 249.744 170.038 C 250.384 169.427,250.907 168.904,250.907 168.875 C 250.907 168.738,250.724 168.905,249.692 169.986 M289.894 175.942 L 289.158 176.733 289.949 175.998 C 290.684 175.313,290.825 175.151,290.685 175.151 C 290.654 175.151,290.298 175.507,289.894 175.942 M21.076 204.374 C 21.076 204.732,21.115 204.879,21.161 204.700 C 21.208 204.521,21.208 204.228,21.161 204.048 C 21.115 203.869,21.076 204.016,21.076 204.374 M228.842 236.063 L 228.106 236.854 228.897 236.119 C 229.633 235.434,229.774 235.272,229.633 235.272 C 229.603 235.272,229.247 235.628,228.842 236.063 " stroke="none" fill="#dba477" fill-rule="evenodd"></path><path id="path4" d="M333.135 138.804 C 333.470 138.845,333.972 138.845,334.252 138.802 C 334.532 138.760,334.258 138.726,333.644 138.727 C 333.029 138.728,332.800 138.763,333.135 138.804 M346.723 138.804 C 347.057 138.845,347.560 138.845,347.840 138.802 C 348.119 138.760,347.846 138.726,347.231 138.727 C 346.617 138.728,346.388 138.763,346.723 138.804 M329.411 138.987 C 329.643 139.031,329.978 139.030,330.156 138.983 C 330.334 138.937,330.144 138.900,329.735 138.902 C 329.325 138.904,329.180 138.942,329.411 138.987 M350.817 138.987 C 351.048 139.031,351.383 139.030,351.561 138.983 C 351.739 138.937,351.550 138.900,351.140 138.902 C 350.731 138.904,350.585 138.942,350.817 138.987 M126.989 140.850 C 127.271 140.893,127.732 140.893,128.013 140.850 C 128.295 140.807,128.064 140.772,127.501 140.772 C 126.938 140.772,126.708 140.807,126.989 140.850 M136.857 140.850 C 137.140 140.893,137.559 140.892,137.788 140.848 C 138.017 140.803,137.785 140.768,137.273 140.770 C 136.761 140.771,136.574 140.807,136.857 140.850 M145.044 141.217 C 145.223 141.264,145.517 141.264,145.696 141.217 C 145.875 141.170,145.728 141.132,145.370 141.132 C 145.012 141.132,144.865 141.170,145.044 141.217 M386.582 145.384 C 386.391 145.505,386.459 145.551,386.831 145.553 C 387.387 145.556,387.487 145.465,387.093 145.314 C 386.956 145.261,386.726 145.293,386.582 145.384 M378.269 145.503 C 378.550 145.546,379.011 145.546,379.293 145.503 C 379.574 145.461,379.344 145.426,378.781 145.426 C 378.218 145.426,377.987 145.461,378.269 145.503 M37.308 171.289 L 36.761 171.894 37.366 171.347 C 37.930 170.838,38.057 170.684,37.913 170.684 C 37.881 170.684,37.609 170.956,37.308 171.289 M34.144 174.453 L 33.597 175.058 34.202 174.511 C 34.766 174.002,34.892 173.848,34.749 173.848 C 34.717 173.848,34.444 174.121,34.144 174.453 M291.194 174.639 L 290.647 175.244 291.252 174.698 C 291.816 174.188,291.942 174.034,291.798 174.034 C 291.766 174.034,291.494 174.307,291.194 174.639 M288.496 177.338 L 287.855 178.036 288.553 177.395 C 289.202 176.798,289.336 176.640,289.194 176.640 C 289.163 176.640,288.849 176.954,288.496 177.338 M276.451 203.630 C 276.451 203.988,276.489 204.134,276.536 203.955 C 276.583 203.776,276.583 203.483,276.536 203.304 C 276.489 203.125,276.451 203.271,276.451 203.630 M276.467 205.491 C 276.467 206.156,276.501 206.429,276.542 206.096 C 276.584 205.763,276.584 205.219,276.542 204.886 C 276.501 204.553,276.467 204.826,276.467 205.491 M33.504 233.655 C 33.504 233.687,33.776 233.960,34.109 234.260 L 34.714 234.807 34.167 234.202 C 33.658 233.638,33.504 233.511,33.504 233.655 M37.040 237.192 C 37.040 237.224,37.313 237.496,37.645 237.797 L 38.250 238.343 37.704 237.738 C 37.194 237.175,37.040 237.048,37.040 237.192 M372.964 264.068 C 373.195 264.112,373.571 264.112,373.802 264.068 C 374.032 264.024,373.844 263.987,373.383 263.987 C 372.922 263.987,372.734 264.024,372.964 264.068 M379.102 264.257 C 379.433 264.298,380.019 264.299,380.405 264.259 C 380.792 264.218,380.521 264.185,379.805 264.184 C 379.088 264.183,378.772 264.216,379.102 264.257 M385.342 264.256 C 385.624 264.299,386.084 264.299,386.366 264.256 C 386.647 264.214,386.417 264.179,385.854 264.179 C 385.291 264.179,385.060 264.214,385.342 264.256 M145.230 267.602 C 145.409 267.648,145.703 267.648,145.882 267.602 C 146.061 267.555,145.914 267.516,145.556 267.516 C 145.198 267.516,145.051 267.555,145.230 267.602 M126.710 267.977 C 126.940 268.021,127.317 268.021,127.548 267.977 C 127.778 267.933,127.590 267.896,127.129 267.896 C 126.668 267.896,126.480 267.933,126.710 267.977 M137.229 267.979 C 137.512 268.022,137.931 268.021,138.160 267.977 C 138.389 267.932,138.157 267.897,137.645 267.899 C 137.134 267.900,136.946 267.936,137.229 267.979 M334.155 270.766 C 334.335 270.813,334.628 270.813,334.807 270.766 C 334.986 270.719,334.839 270.681,334.481 270.681 C 334.123 270.681,333.976 270.719,334.155 270.766 M346.068 270.766 C 346.247 270.813,346.540 270.813,346.719 270.766 C 346.899 270.719,346.752 270.681,346.394 270.681 C 346.035 270.681,345.889 270.719,346.068 270.766 " stroke="none" fill="#dc9c66" fill-rule="evenodd"></path></g></svg>